<?xml version="1.0" standalone="no"?><!DOCTYPE svg PUBLIC "-//W3C//DTD SVG 1.1//EN" "http://www.w3.org/Graphics/SVG/1.1/DTD/svg11.dtd"><svg t="1495594904251" class="icon" style="" viewBox="0 0 1024 1024" version="1.1" xmlns="http://www.w3.org/2000/svg" p-id="2850" xmlns:xlink="http://www.w3.org/1999/xlink" width="16" height="16"><defs><style type="text/css"></style></defs><path d="M160 64c-35.2 0-64 28.8-64 64v800c0 35.2 28.8 64 64 64h672c35.2 0 64-28.8 64-64V246.4L713.6 64H160z" fill="#FFFFFF" p-id="2851"></path><path d="M352 406.4s0-3.2 3.2-6.4 3.2-3.2 6.4-3.2c96-32 195.2-48 294.4-51.2 3.2 0 6.4 6.4 6.4 9.6v339.2c0 12.8-3.2 25.6-12.8 41.6-9.6 12.8-22.4 22.4-38.4 32-41.6 19.2-83.2 9.6-96-16-12.8-28.8 9.6-64 48-83.2 19.2-9.6 41.6-12.8 60.8-9.6v-214.4c-73.6 3.2-150.4 16-224 38.4v236.8c0 32-19.2 57.6-54.4 73.6-41.6 19.2-83.2 9.6-96-16-12.8-28.8 9.6-64 48-83.2 19.2-9.6 41.6-12.8 57.6-9.6l-3.2-278.4z" fill="#0095E1" p-id="2852"></path><path d="M908.8 220.8l-182.4-182.4c-3.2-3.2-6.4-6.4-12.8-6.4H160C115.2 32 80 67.2 80 112v800C80 956.8 115.2 992 160 992h672c44.8 0 80-35.2 80-80V230.4c0-3.2-3.2-6.4-3.2-9.6z m-51.2 3.2H768c-25.6 0-48-22.4-48-48V86.4L857.6 224zM832 960H160c-25.6 0-48-22.4-48-48v-800C112 86.4 134.4 64 160 64h528v112C688 220.8 723.2 256 768 256h112v656c0 25.6-22.4 48-48 48z" fill="#CECECE" p-id="2853"></path></svg>