<?xml version="1.0" standalone="no"?><!DOCTYPE svg PUBLIC "-//W3C//DTD SVG 1.1//EN" "http://www.w3.org/Graphics/SVG/1.1/DTD/svg11.dtd"><svg class="icon" width="16px" height="16.00px" viewBox="0 0 1024 1024" version="1.1" xmlns="http://www.w3.org/2000/svg"><path d="M626.404 726.07h-27.647v59.779H422.285V726.07H133.922V611.373H362.27v-70.589H133.922V426.088H362.27v-70.589H133.922V240.802h288.363v-59.779h176.471v59.779H887.12v114.697H658.772v70.589h83.344a188.253 188.253 0 0 1 62.728 0h82.277v35.853c36.461 27.933 62.343 68.977 70.589 116.095V170.213H63.333v626.446h691.939c-52.211-5.045-98.146-31.547-128.868-70.589zM957.708 642.963c-14.346 81.976-82.066 145.585-166.023 153.696h166.023V642.963z" fill="#839495" /><path d="M658.772 355.499v-20.686h-60.015V181.022H422.285v153.791H362.27v301.639h60.015v149.397h176.471V677.366c-7.952-20.766-12.321-43.304-12.321-66.867 0-60.07 28.323-113.519 72.336-147.741V355.499z" fill="#819292" /><path d="M957.708 642.963c1.845-10.545 2.814-21.391 2.814-32.464s-0.969-21.919-2.814-32.464c-8.246-47.118-34.128-88.162-70.589-116.095-23.624-18.099-51.687-30.688-82.277-35.853a188.253 188.253 0 0 0-62.728 0c-31.051 5.243-59.5 18.131-83.344 36.671-44.013 34.222-72.336 87.671-72.336 147.741 0 23.562 4.369 46.101 12.321 66.867a186.78 186.78 0 0 0 27.647 48.704c30.722 39.042 76.657 65.544 128.869 70.589 5.992 0.579 12.063 0.884 18.207 0.884s12.215-0.305 18.207-0.884c83.958-8.112 151.677-71.72 166.023-153.696z m-146.794-32.464l77.032 77.032-37.435 37.435-77.032-77.032-77.032 77.032-37.435-37.435 77.032-77.032-77.032-77.032 37.435-37.435 77.032 77.032 77.032-77.032 37.435 37.435-77.032 77.032z" fill="#BD3C20" /><path d="M850.511 496.032l-77.032 77.032-77.031-77.032-37.436 37.436 77.032 77.031-77.032 77.032 37.436 37.435 77.031-77.032 77.032 77.032 37.435-37.435-77.032-77.032 77.032-77.031z" fill="#FFFFFF" /></svg>