<?xml version="1.0" standalone="no"?><!DOCTYPE svg PUBLIC "-//W3C//DTD SVG 1.1//EN" "http://www.w3.org/Graphics/SVG/1.1/DTD/svg11.dtd"><svg class="icon" width="16px" height="16.00px" viewBox="0 0 1024 1024" version="1.1" xmlns="http://www.w3.org/2000/svg"><path d="M99.556097 85.32008A85.27598 85.27598 0 0 1 184.960077 0.0001h501.972882l251.733941 255.99994v683.60484A84.33798 84.33798 0 0 1 854.17192 1023.99986H184.050077a84.46598 84.46598 0 0 1-84.49398-84.43698V85.31908z" fill="#635F9C" /><path d="M938.6669 256.00004H772.152939a85.33298 85.33298 0 0 1-85.21998-85.24798V0.0001l251.733941 255.99994z" fill="#45426C" /><path d="M732.671948 435.639998a9.115998 9.115998 0 0 0-9.116998 0.2l-83.85398 50.986988v-49.948988a27.448994 27.448994 0 0 0-27.589993-27.277994H362.083035a27.448994 27.448994 0 0 0-27.576993 27.277994v192.909954a27.448994 27.448994 0 0 0 27.576993 27.278994H612.109977c15.217996 0 27.605994-12.230997 27.605993-27.278994v-50.089988l83.83998 50.999988a9.082998 9.082998 0 0 0 9.115998 0.186 8.831998 8.831998 0 0 0 4.607999-7.765998V443.405996a8.902998 8.902998 0 0 0-4.607999-7.764998z" fill="#FFFFFF" /></svg>