<?xml version="1.0" standalone="no"?><!DOCTYPE svg PUBLIC "-//W3C//DTD SVG 1.1//EN" "http://www.w3.org/Graphics/SVG/1.1/DTD/svg11.dtd"><svg class="icon" width="16px" height="16.00px" viewBox="0 0 1024 1024" version="1.1" xmlns="http://www.w3.org/2000/svg"><path d="M955.73 204.8v750.93a68.47 68.47 0 0 1-68.26 68.27H136.53a68.47 68.47 0 0 1-68.27-68.27V68.27A68.47 68.47 0 0 1 136.53 0h614.4z" fill="#31C27C" /><path d="M955.73 204.8H819.2a68.27 68.27 0 0 1-68.27-68.27V0z" fill="#98E1BE" /><path d="M528.23 631.55c-21.5-10.92-47.45-17.07-75.09-17.07-75.43 0-136.53 45.74-136.53 102.4 0 56.32 61.1 102.4 136.53 102.4s136.53-46.08 136.53-102.4v-298c11.26 4.78 50.86 21.16 106.15-8.87 19.46-10.24 10.92-20.82-0.34-20.82-71.34 0-120.15-28.67-146.43-43.35-13.65-7.85-20.82-5.46-20.82 5.8z" fill="#FFFFFF" /></svg>